<svg width="1090" height="289" viewBox="0 0 1090 289" fill="none" xmlns="http://www.w3.org/2000/svg">
<g filter="url(#filter0_bd_2013_1071)">
<path d="M759 36C759 22.7452 769.745 12 783 12H1127C1140.25 12 1151 22.7452 1151 36V334.902H759V36Z" fill="#C0C0C0" fill-opacity="0.75" style="mix-blend-mode:soft-light" shape-rendering="crispEdges"/>
<path d="M783 12.5H1127C1139.98 12.5 1150.5 23.0213 1150.5 36V334.402H759.5V36C759.5 23.0213 770.021 12.5 783 12.5Z" stroke="white" stroke-opacity="0.5" style="mix-blend-mode:soft-light" shape-rendering="crispEdges"/>
</g>
<rect x="778.6" y="62.6171" width="352.8" height="69.8166" rx="8" fill="#C0C0C0" style="mix-blend-mode:overlay"/>
<rect x="779.1" y="63.1171" width="351.8" height="68.8166" rx="7.5" stroke="white" stroke-opacity="0.5" style="mix-blend-mode:soft-light"/>
<path d="M778.6 168.36C778.6 163.942 782.182 160.36 786.6 160.36H1123.4C1127.82 160.36 1131.4 163.942 1131.4 168.36V334.902H778.6V168.36Z" fill="#C0C0C0" style="mix-blend-mode:overlay"/>
<path d="M786.6 160.86H1123.4C1127.54 160.86 1130.9 164.218 1130.9 168.36V334.402H779.1V168.36C779.1 164.218 782.458 160.86 786.6 160.86Z" stroke="white" stroke-opacity="0.5" style="mix-blend-mode:soft-light"/>
<g filter="url(#filter1_bd_2013_1071)">
<path d="M-37 69C-37 55.7452 -26.2548 45 -13 45H307.35C320.605 45 331.35 55.7452 331.35 69V348.42H-37V69Z" fill="#C0C0C0" fill-opacity="0.75" style="mix-blend-mode:soft-light" shape-rendering="crispEdges"/>
<path d="M-13 45.5H307.35C320.328 45.5 330.85 56.0213 330.85 69V347.92H-36.5V69C-36.5 56.0213 -25.9787 45.5 -13 45.5Z" stroke="white" stroke-opacity="0.5" style="mix-blend-mode:soft-light" shape-rendering="crispEdges"/>
</g>
<rect x="-18.5825" y="92.5632" width="331.515" height="65.6044" rx="8" fill="#C0C0C0" style="mix-blend-mode:overlay"/>
<rect x="-18.0825" y="93.0632" width="330.515" height="64.6044" rx="7.5" stroke="white" stroke-opacity="0.5" style="mix-blend-mode:soft-light"/>
<path d="M-18.5825 192.409C-18.5825 187.991 -15.0008 184.409 -10.5825 184.409H304.932C309.351 184.409 312.932 187.991 312.932 192.409V348.42H-18.5825V192.409Z" fill="#C0C0C0" style="mix-blend-mode:overlay"/>
<path d="M-10.5825 184.909H304.932C309.074 184.909 312.432 188.267 312.432 192.409V347.92H-18.0825V192.409C-18.0825 188.267 -14.7247 184.909 -10.5825 184.909Z" stroke="white" stroke-opacity="0.5" style="mix-blend-mode:soft-light"/>
<g filter="url(#filter2_bd_2013_1071)">
<path d="M345 128C345 114.745 355.745 104 369 104H721C734.255 104 745 114.745 745 128V289H345V128Z" fill="#C0C0C0" fill-opacity="0.75" style="mix-blend-mode:soft-light" shape-rendering="crispEdges"/>
<path d="M369 104.5H721C733.979 104.5 744.5 115.021 744.5 128V288.5H345.5V128C345.5 115.021 356.021 104.5 369 104.5Z" stroke="white" stroke-opacity="0.5" style="mix-blend-mode:soft-light" shape-rendering="crispEdges"/>
</g>
<rect x="365" y="133" width="360" height="40" rx="8" fill="#C0C0C0" style="mix-blend-mode:overlay"/>
<rect x="365.5" y="133.5" width="359" height="39" rx="7.5" stroke="white" stroke-opacity="0.5" style="mix-blend-mode:soft-light"/>
<path d="M365 197C365 192.582 368.582 189 373 189H717C721.418 189 725 192.582 725 197V289H365V197Z" fill="#C0C0C0" style="mix-blend-mode:overlay"/>
<path d="M373 189.5H717C721.142 189.5 724.5 192.858 724.5 197V288.5H365.5V197C365.5 192.858 368.858 189.5 373 189.5Z" stroke="white" stroke-opacity="0.5" style="mix-blend-mode:soft-light"/>
<defs>
<filter id="filter0_bd_2013_1071" x="743" y="-4" width="424" height="358.902" filterUnits="userSpaceOnUse" color-interpolation-filters="sRGB">
<feFlood flood-opacity="0" result="BackgroundImageFix"/>
<feGaussianBlur in="BackgroundImageFix" stdDeviation="8"/>
<feComposite in2="SourceAlpha" operator="in" result="effect1_backgroundBlur_2013_1071"/>
<feColorMatrix in="SourceAlpha" type="matrix" values="0 0 0 0 0 0 0 0 0 0 0 0 0 0 0 0 0 0 127 0" result="hardAlpha"/>
<feOffset dy="4"/>
<feGaussianBlur stdDeviation="8"/>
<feComposite in2="hardAlpha" operator="out"/>
<feColorMatrix type="matrix" values="0 0 0 0 0 0 0 0 0 0 0 0 0 0 0.2 0 0 0 0.1 0"/>
<feBlend mode="normal" in2="effect1_backgroundBlur_2013_1071" result="effect2_dropShadow_2013_1071"/>
<feBlend mode="normal" in="SourceGraphic" in2="effect2_dropShadow_2013_1071" result="shape"/>
</filter>
<filter id="filter1_bd_2013_1071" x="-53" y="29" width="400.35" height="339.42" filterUnits="userSpaceOnUse" color-interpolation-filters="sRGB">
<feFlood flood-opacity="0" result="BackgroundImageFix"/>
<feGaussianBlur in="BackgroundImageFix" stdDeviation="8"/>
<feComposite in2="SourceAlpha" operator="in" result="effect1_backgroundBlur_2013_1071"/>
<feColorMatrix in="SourceAlpha" type="matrix" values="0 0 0 0 0 0 0 0 0 0 0 0 0 0 0 0 0 0 127 0" result="hardAlpha"/>
<feOffset dy="4"/>
<feGaussianBlur stdDeviation="8"/>
<feComposite in2="hardAlpha" operator="out"/>
<feColorMatrix type="matrix" values="0 0 0 0 0 0 0 0 0 0 0 0 0 0 0.2 0 0 0 0.1 0"/>
<feBlend mode="normal" in2="effect1_backgroundBlur_2013_1071" result="effect2_dropShadow_2013_1071"/>
<feBlend mode="normal" in="SourceGraphic" in2="effect2_dropShadow_2013_1071" result="shape"/>
</filter>
<filter id="filter2_bd_2013_1071" x="329" y="88" width="432" height="221" filterUnits="userSpaceOnUse" color-interpolation-filters="sRGB">
<feFlood flood-opacity="0" result="BackgroundImageFix"/>
<feGaussianBlur in="BackgroundImageFix" stdDeviation="8"/>
<feComposite in2="SourceAlpha" operator="in" result="effect1_backgroundBlur_2013_1071"/>
<feColorMatrix in="SourceAlpha" type="matrix" values="0 0 0 0 0 0 0 0 0 0 0 0 0 0 0 0 0 0 127 0" result="hardAlpha"/>
<feOffset dy="4"/>
<feGaussianBlur stdDeviation="8"/>
<feComposite in2="hardAlpha" operator="out"/>
<feColorMatrix type="matrix" values="0 0 0 0 0 0 0 0 0 0 0 0 0 0 0.2 0 0 0 0.1 0"/>
<feBlend mode="normal" in2="effect1_backgroundBlur_2013_1071" result="effect2_dropShadow_2013_1071"/>
<feBlend mode="normal" in="SourceGraphic" in2="effect2_dropShadow_2013_1071" result="shape"/>
</filter>
</defs>
</svg>
