<svg width="25" height="24" viewBox="0 0 25 24" fill="none" xmlns="http://www.w3.org/2000/svg">
<g clip-path="url(#clip0_2013_1066)">
<path d="M24.4873 12.2245C24.4873 11.2413 24.4057 10.5238 24.229 9.77966H12.739V14.2176H19.4833C19.3474 15.3205 18.6132 16.9815 16.9814 18.0976L16.9585 18.2462L20.5915 20.9964L20.8431 21.0209C23.1547 18.9347 24.4873 15.8653 24.4873 12.2245Z" fill="#4285F4"/>
<path d="M12.7391 23.9176C16.0433 23.9176 18.8171 22.8545 20.8432 21.0209L16.9815 18.0976C15.9481 18.8018 14.5611 19.2934 12.7391 19.2934C9.50291 19.2934 6.75622 17.2074 5.77711 14.324L5.63359 14.3359L1.85604 17.1927L1.80664 17.3269C3.81906 21.2334 7.95273 23.9176 12.7391 23.9176Z" fill="#34A853"/>
<path d="M5.77702 14.3239C5.51867 13.5798 5.36916 12.7825 5.36916 11.9587C5.36916 11.1349 5.51867 10.3376 5.76343 9.59354L5.75658 9.43507L1.9317 6.53235L1.80655 6.59052C0.97714 8.21162 0.501221 10.032 0.501221 11.9587C0.501221 13.8854 0.97714 15.7058 1.80655 17.3269L5.77702 14.3239Z" fill="#FBBC05"/>
<path d="M12.7391 4.62403C15.0371 4.62403 16.5871 5.59401 17.471 6.40461L20.9248 3.10928C18.8036 1.1826 16.0433 0 12.7391 0C7.95272 0 3.81906 2.68406 1.80664 6.59056L5.76351 9.59359C6.75622 6.7102 9.50291 4.62403 12.7391 4.62403Z" fill="#EB4335"/>
</g>
<defs>
<clipPath id="clip0_2013_1066">
<rect width="24" height="24" fill="white" transform="translate(0.5)"/>
</clipPath>
</defs>
</svg>
